<?xml version="1.0" encoding="UTF-8" standalone="no"?>
<!-- Created with Inkscape (http://www.inkscape.org/) -->

<svg
   width="107.12184mm"
   height="15.530981mm"
   viewBox="0 0 107.12184 15.530981"
   version="1.1"
   id="svg1"
   xml:space="preserve"
   xmlns="http://www.w3.org/2000/svg"
   xmlns:svg="http://www.w3.org/2000/svg"><defs
     id="defs1" /><g
     id="layer1"
     transform="translate(-41.730326,-293.84529)"><g
       id="g3"><path
         id="path23"
         style="fill:#1a1a1a;fill-opacity:1;fill-rule:nonzero;stroke:none;stroke-width:0.00902466"
         d="m 57.964397,300.53094 1.021506,-1.80503 c -1.419944,-0.0212 -2.759027,-0.64779 -3.683605,-1.72913 l -1.504058,-1.81297 c -0.703387,-0.84787 -1.747815,-1.33854 -2.84946,-1.33854 h -0.699233 l 3.615293,4.38077 c 1.060042,1.23972 2.514285,2.04815 4.099557,2.3049" /><path
         id="path25"
         style="fill:#1a1a1a;fill-opacity:1;fill-rule:nonzero;stroke:none;stroke-width:0.00902466"
         d="m 56.435979,303.2314 0.981435,-1.734 c -1.710722,-0.26876 -3.281201,-1.13639 -4.423996,-2.47277 l -4.393222,-5.17936 H 46.1 l 5.455965,6.40852 c 1.283585,1.50117 2.996106,2.53269 4.880014,2.97761" /><path
         id="path27"
         style="fill:#1a1a1a;fill-opacity:1;fill-rule:nonzero;stroke:none;stroke-width:0.00902466"
         d="m 55.927344,304.13017 c -1.992198,-0.45403 -3.804719,-1.53627 -5.159055,-3.1202 l -6.394805,-7.1647 h -2.643159 l 7.60051,8.39396 c 1.496839,1.75061 3.461242,2.98961 5.630867,3.59715 l 0.965642,-1.70621" /><path
         id="path29"
         style="fill:#1a1a1a;fill-opacity:1;fill-rule:nonzero;stroke:none;stroke-width:0.00902466"
         d="m 66.836486,300.61938 h 1.913597 l 1.13639,-1.89139 h -1.979567 l -1.07042,1.89139" /><path
         id="path31"
         style="fill:#1a1a1a;fill-opacity:1;fill-rule:nonzero;stroke:none;stroke-width:0.00902466"
         d="M 63.642827,306.26217 H 64.1067 c 0.952914,0 1.833996,-0.50683 2.313026,-1.33061 l 0.326062,-0.56079 h -2.032539 l -1.070422,1.8914" /><path
         id="path33"
         style="fill:#1a1a1a;fill-opacity:1;fill-rule:nonzero;stroke:none;stroke-width:0.00902466"
         d="m 65.218089,303.47886 h 2.009167 l 1.061394,-1.8914 h -2.000143 l -1.070418,1.8914" /><path
         id="path35"
         style="fill:#00d4aa;fill-opacity:1;fill-rule:nonzero;stroke:none;stroke-width:0.00902466"
         d="m 60.465234,298.72799 -1.070415,1.89139 h 5.961165 l 1.070421,-1.89139 h -5.961171" /><path
         id="path37"
         style="fill:#00d4aa;fill-opacity:1;fill-rule:nonzero;stroke:none;stroke-width:0.00902466"
         d="m 58.556782,303.47886 h 5.180804 l 1.070512,-1.8914 h -5.961266 l -1.052546,1.8599 c 0.252508,0.0208 0.506826,0.0315 0.762496,0.0315" /><path
         id="path39"
         style="fill:#00d4aa;fill-opacity:1;fill-rule:nonzero;stroke:none;stroke-width:0.00902466"
         d="m 63.232836,304.37077 h -5.169072 c -0.259644,0 -0.517929,-0.0106 -0.774411,-0.0312 l -1.009231,1.7831 c 0.585702,0.0918 1.181694,0.13953 1.783642,0.13953 h 4.098657 l 1.070415,-1.8914" /><g
         id="g75"
         transform="matrix(0.03596727,0,0,0.03596727,99.60852,292.11098)"
         style="fill:#1a1a1a"><path
           id="path41"
           style="fill:#1a1a1a;fill-opacity:1;fill-rule:nonzero;stroke:none;stroke-width:0.329511"
           d="M -440.05964,303.22778 -507.41512,180.6824 h -48.31629 l -67.11821,122.30812 -39.78194,-97.30147 c -6.18494,-15.12459 -20.90094,-25.00665 -37.2381,-25.00665 h -23.99506 l 71.88957,175.96252 h 50.85024 l 68.25173,-124.44337 68.24513,124.44337 h 51.08419 l 71.89615,-175.96252 h -48.40527 l -50.00666,122.54538" /><path
           id="path43"
           style="fill:#1a1a1a;fill-opacity:1;fill-rule:nonzero;stroke:none;stroke-width:0.329511"
           d="m -315.98864,356.64492 h 47.13663 V 180.6824 h -47.13663 v 175.96252" /><path
           id="path45"
           style="fill:#1a1a1a;fill-opacity:1;fill-rule:nonzero;stroke:none;stroke-width:0.329511"
           d="m -188.9026,180.6824 h -47.13334 V 356.64492 H -51.535747 V 311.88406 H -188.9026 V 180.6824" /><path
           id="path47"
           style="fill:#1a1a1a;fill-opacity:1;fill-rule:nonzero;stroke:none;stroke-width:0.329511"
           d="M 219.37545,180.6824 H 147.12664 L 61.717236,243.07871 H 28.413487 V 180.6824 h -47.133335 v 175.96252 h 47.133335 v -68.80535 h 32.951338 l 86.598855,68.80535 h 72.11684 L 104.45506,264.79355 219.37545,180.6824" /><path
           id="path49"
           style="fill:#1a1a1a;fill-opacity:1;fill-rule:nonzero;stroke:none;stroke-width:0.329511"
           d="m 243.68031,356.64492 h 47.12988 V 180.6824 h -47.12988 v 175.96252" /><path
           id="path51"
           style="fill:#1a1a1a;fill-opacity:1;fill-rule:nonzero;stroke:none;stroke-width:0.329511"
           d="M 503.94177,303.71875 404.80803,204.77299 C 389.35402,189.34857 368.41017,180.6824 346.57345,180.6824 h -22.94391 v 175.96252 h 47.13681 V 233.457 l 97.87137,98.77438 c 15.48046,15.62215 36.56269,24.41354 58.55759,24.41354 h 23.87634 V 180.6824 h -47.12988 v 123.03635" /><path
           id="path53"
           style="fill:#1a1a1a;fill-opacity:1;fill-rule:nonzero;stroke:none;stroke-width:0.329511"
           d="m 811.59013,263.91703 c -12.78497,-7.43707 -28.17325,-12.12601 -45.73606,-13.93174 -17.00279,-1.74641 -39.11311,-2.71187 -65.70469,-2.87004 -17.0028,-0.15149 -30.51286,-0.51075 -40.21682,-1.06433 -9.1736,-0.52064 -16.769,-1.92764 -22.57492,-4.17491 -6.3365,-2.45487 -6.3365,-5.40398 -6.3365,-6.66273 0,-4.85041 8.68601,-7.61502 13.86247,-8.83092 11.35826,-2.66904 26.82883,-4.02002 45.97354,-4.02002 21.35234,0 45.07718,1.3444 70.41655,4.00357 25.37247,2.66904 43.42979,5.11729 53.57859,7.27561 l 5.96432,1.26201 v -43.19897 l -3.75642,-0.91602 c -13.14753,-3.20286 -30.74344,-6.14869 -52.2935,-8.76173 -21.61605,-2.62292 -43.19898,-3.95744 -64.18903,-3.95744 -33.03337,0 -60.64315,4.14197 -82.07138,12.31055 -22.96687,8.75184 -34.61528,23.83358 -34.61528,44.83336 0,17.62228 7.28896,30.82911 21.6588,39.25474 13.35856,7.83576 29.31674,12.72901 47.44325,14.53474 17.59914,1.753 40.30256,2.71847 67.52015,2.87334 16.24484,0 29.03005,0.23405 38.05859,0.69855 8.56739,0.45145 15.68483,1.63769 21.15464,3.53239 5.60178,1.93753 5.60178,4.29024 5.60178,5.29854 0,4.81745 -9.42419,7.66773 -15.02573,8.93964 -12.15898,2.75141 -28.50292,4.14526 -48.60305,4.14526 -22.70342,0 -47.68024,-1.3477 -74.24884,-4.00357 -26.53549,-2.65585 -44.56983,-5.16673 -53.60159,-7.47 l -6.16202,-1.56521 v 43.70313 l 3.78609,0.91276 c 12.62359,3.03809 30.2986,5.90484 52.53421,8.52117 22.22867,2.6262 44.6091,3.95415 66.5217,3.95415 34.59874,0 63.46395,-4.13209 85.80484,-12.28421 23.95541,-8.73536 36.11439,-23.82369 36.11439,-44.85312 0,-16.83806 -7.0186,-29.45176 -20.85808,-37.48855" /><path
           id="path55"
           style="fill:#1a1a1a;fill-opacity:1;fill-rule:nonzero;stroke:none;stroke-width:0.329511"
           d="m 984.08947,313.78204 c -20.82498,0 -37.00409,-1.49928 -48.07567,-4.4616 -10.31364,-2.75471 -17.66191,-7.26902 -21.84663,-13.42431 v -0.002 c -4.31668,-6.32663 -6.52433,-15.80668 -6.52433,-28.17985 0,-12.03375 2.17479,-21.26007 6.49147,-27.42524 4.1847,-6.00701 11.53273,-10.41916 21.84661,-13.10469 11.10446,-2.88652 27.28357,-4.35284 48.10855,-4.35284 20.82523,0 37.00433,1.46632 48.10883,4.35284 10.3136,2.68553 17.6619,7.09768 21.8466,13.10469 4.3167,6.17174 6.4915,15.40137 6.4915,27.42524 0,12.36328 -2.208,21.84662 -6.4915,28.17985 -4.2179,6.15528 -11.5659,10.67288 -21.8795,13.42759 -11.0716,2.96232 -27.2507,4.4616 -48.07593,4.4616 z m 75.12873,-128.40411 c -16.9698,-4.85039 -42.2434,-7.30856 -75.12873,-7.30856 -32.88511,0 -58.15873,2.45817 -75.12866,7.30856 -17.85937,5.10085 -30.57859,14.314 -37.86089,27.38573 -7.01859,12.63017 -10.57732,31.27725 -10.57732,55.42715 0,24.4827 3.45987,42.61242 10.57732,55.42716 7.2823,13.06511 20.00152,22.31451 37.82802,27.48784 16.96993,4.93279 42.27642,7.4371 75.16153,7.4371 32.88533,0 58.19183,-2.50431 75.16173,-7.4371 17.8266,-5.17333 30.5458,-14.42273 37.8279,-27.49116 7.1173,-12.80481 10.5772,-30.93783 10.5772,-55.42384 0,-24.32455 -3.4599,-42.41473 -10.5772,-55.29864 -7.2821,-13.1541 -20.0013,-22.41008 -37.8609,-27.51424" /><path
           id="path57"
           style="fill:#1a1a1a;fill-opacity:1;fill-rule:nonzero;stroke:none;stroke-width:0.329511"
           d="m 1320.7844,180.6824 v 123.03635 l -99.1169,-98.94576 c -15.4543,-15.42442 -36.4112,-24.09059 -58.2579,-24.09059 h -22.9339 v 175.96252 h 47.1202 V 233.457 l 97.8978,98.77438 c 15.4542,15.62215 36.543,24.41354 58.5545,24.41354 h 23.8564 V 180.6824 h -47.1202" /><path
           id="path59"
           style="fill:#1a1a1a;fill-opacity:1;fill-rule:nonzero;stroke:none;stroke-width:0.329511"
           d="m 335.75565,422.37588 h 55.1998 v 8.14553 h -44.60271 v 16.0538 h 43.01784 v 7.58864 h -43.01784 v 16.05711 h 44.60271 v 8.22461 h -55.1998 v -56.06969" /><path
           id="path61"
           style="fill:#1a1a1a;fill-opacity:1;fill-rule:nonzero;stroke:none;stroke-width:0.329511"
           d="m 433.50199,422.37588 h 15.5793 l 42.38838,46.49737 v -46.49737 h 10.51801 v 56.06969 h -15.50023 l -42.38837,-46.50398 v 46.50398 h -10.59709 v -56.06969" /><path
           id="path63"
           style="fill:#1a1a1a;fill-opacity:1;fill-rule:nonzero;stroke:none;stroke-width:0.329511"
           d="m 561.45793,476.38943 c -5.64131,-2.42522 -10.00397,-5.86532 -13.0882,-10.32032 -3.08424,-4.45499 -4.62634,-9.63492 -4.62634,-15.53976 0,-5.96087 1.52902,-11.18033 4.5868,-15.65839 3.05457,-4.48136 7.38115,-7.93464 12.96958,-10.36315 5.58521,-2.42192 12.09966,-3.6345 19.53345,-3.6345 6.90665,0 12.91694,0.96216 18.03088,2.88653 5.11072,1.92433 9.09452,4.54726 11.9415,7.86872 2.84698,3.31818 4.50771,7.01201 4.98221,11.07161 h -11.9415 c -0.36897,-1.898 -1.42349,-3.78281 -3.16332,-5.65775 -1.73981,-1.86832 -4.28357,-3.4401 -7.63147,-4.70543 -3.35115,-1.262 -7.39425,-1.89797 -12.13922,-1.89797 -5.5358,0 -10.22812,0.92593 -14.07673,2.77121 -3.84862,1.84524 -6.73514,4.29681 -8.65958,7.35469 -1.92442,3.05457 -2.8865,6.37934 -2.8865,9.96443 0,3.74325 0.98853,7.11746 2.96559,10.11929 1.97708,3.00515 4.95257,5.39411 8.93635,7.1603 3.98059,1.76617 8.87038,2.64928 14.66986,2.64928 5.00866,0 9.50303,-0.42178 13.48362,-1.26533 3.98058,-0.84356 7.73701,-2.21762 11.26929,-4.11231 v -6.16844 h -27.12539 v -9.56902 h 36.299 v 21.58628 c -9.27913,6.06632 -20.79877,9.09783 -34.55918,9.09783 -7.53931,0 -14.12937,-1.2159 -19.7707,-3.6378" /><path
           id="path65"
           style="fill:#1a1a1a;fill-opacity:1;fill-rule:nonzero;stroke:none;stroke-width:0.329511"
           d="m 658.64747,422.37588 h 10.59709 v 56.06969 h -10.59709 v -56.06969" /><path
           id="path67"
           style="fill:#1a1a1a;fill-opacity:1;fill-rule:nonzero;stroke:none;stroke-width:0.329511"
           d="m 714.1537,422.37588 h 15.58573 l 42.37529,46.49737 v -46.49737 h 10.54444 v 56.06969 h -15.51998 l -42.37529,-46.50398 v 46.50398 H 714.1537 v -56.06969" /><path
           id="path69"
           style="fill:#1a1a1a;fill-opacity:1;fill-rule:nonzero;stroke:none;stroke-width:0.329511"
           d="m 827.6375,422.37588 h 55.22599 v 8.14553 h -44.6158 v 16.0538 h 43.00127 v 7.58864 h -43.00127 v 16.05711 h 44.6158 v 8.22461 H 827.6375 v -56.06969" /><path
           id="path71"
           style="fill:#1a1a1a;fill-opacity:1;fill-rule:nonzero;stroke:none;stroke-width:0.329511"
           d="m 925.40359,422.37588 h 55.19308 v 8.14553 h -44.61575 v 16.0538 h 43.03415 v 7.58864 h -43.03415 v 16.05711 h 44.61575 v 8.22461 h -55.19308 v -56.06969" /><path
           id="path72"
           style="fill:#1a1a1a;fill-opacity:1;fill-rule:nonzero;stroke:none;stroke-width:0.329511"
           d="m 1063.8643,449.34312 c 4.3826,0 7.6448,-0.73812 9.8525,-2.21432 2.1748,-1.47951 3.2949,-3.87506 3.2949,-7.19985 0,-3.26545 -1.0873,-5.57202 -3.2621,-6.91643 -2.1747,-1.34772 -5.4369,-2.01992 -9.8853,-2.01992 h -30.1172 v 18.35052 z m -40.7277,-26.96724 h 42.9356 c 14.5643,0 21.8466,5.37762 21.8466,16.1329 0,3.74323 -0.9885,6.84065 -2.9656,9.29222 -1.9771,2.45156 -4.9099,4.17491 -8.7652,5.17992 3.4928,0.10553 6.2607,1.10716 8.2709,3.00183 2.0429,1.898 3.0645,4.48467 3.0645,7.75343 v 14.70939 h -10.5117 v -13.20682 c 0,-2.47793 -0.6259,-4.29683 -1.8781,-5.45671 -1.252,-1.15989 -3.1633,-1.74313 -5.7336,-1.74313 h -35.6529 v 20.40666 h -10.6105 v -56.06969" /><path
           id="path73"
           style="fill:#1a1a1a;fill-opacity:1;fill-rule:nonzero;stroke:none;stroke-width:0.329511"
           d="m 1131.3155,422.37588 h 10.6102 v 56.06969 h -10.6102 v -56.06969" /><path
           id="path74"
           style="fill:#1a1a1a;fill-opacity:1;fill-rule:nonzero;stroke:none;stroke-width:0.329511"
           d="m 1186.838,422.37588 h 15.5859 l 42.3753,46.49737 v -46.49737 h 10.5443 v 56.06969 h -15.5201 l -42.375,-46.50398 v 46.50398 h -10.6104 v -56.06969" /><path
           id="path75"
           style="fill:#1a1a1a;fill-opacity:1;fill-rule:nonzero;stroke:none;stroke-width:0.329511"
           d="m 1314.7874,476.38943 c -5.6346,-2.42522 -9.9842,-5.86532 -13.0817,-10.32032 -3.0973,-4.45499 -4.6131,-9.63492 -4.6131,-15.53976 0,-5.96087 1.5158,-11.18033 4.5802,-15.65839 3.0645,-4.48136 7.3812,-7.93464 12.9498,-10.36315 5.6018,-2.42192 12.1262,-3.6345 19.5401,-3.6345 6.9197,0 12.9167,0.96216 18.0243,2.88653 5.1404,1.92433 9.0945,4.54726 11.9612,7.86872 2.8338,3.31818 4.5144,7.01201 4.9756,11.07161 h -11.9282 c -0.3954,-1.898 -1.4499,-3.78281 -3.1634,-5.65775 -1.7463,-1.86832 -4.2837,-3.4401 -7.6447,-4.70543 -3.3611,-1.262 -7.381,-1.89797 -12.1259,-1.89797 -5.5358,0 -10.2479,0.92593 -14.1032,2.77121 -3.8224,1.84524 -6.722,4.29681 -8.6331,7.35469 -1.9442,3.05457 -2.8999,6.37934 -2.8999,9.96443 0,3.74325 0.9886,7.11746 2.9656,10.11929 1.9771,3.00515 4.9428,5.39411 8.93,7.1603 3.987,1.76617 8.8636,2.64928 14.6631,2.64928 5.0087,0 9.5228,-0.42178 13.5102,-1.26533 3.9541,-0.84356 7.7105,-2.21762 11.2691,-4.11231 v -6.16844 h -27.1517 v -9.56902 h 36.3121 v 21.58628 c -9.2923,6.06632 -20.7921,9.09783 -34.5657,9.09783 -7.546,0 -14.136,-1.2159 -19.7707,-3.6378" /></g></g></g></svg>
